<svg width="150" height="21" viewBox="0 0 150 21" fill="none" xmlns="http://www.w3.org/2000/svg">
<path d="M100.195 5.55173C100.289 5.22239 100.467 5.08125 100.863 5.08125H103.262C103.592 5.08125 103.827 5.41059 103.714 5.75875L98.7737 19.9768C98.689 20.212 98.5197 20.3438 98.2656 20.3438H96.0637C95.6591 20.3438 95.4333 20.005 95.565 19.6569L97.1929 15.7518H96.4401C96.1673 15.7518 95.9885 15.6107 95.9038 15.3472L92.6104 5.85285C92.4504 5.39177 92.7045 5.07184 93.1185 5.07184H95.4521C95.7815 5.07184 95.9979 5.14712 96.1108 5.5141L98.1809 12.8443L100.195 5.55173Z" fill="white"/>
<path d="M91.5656 5.72109C91.4809 5.74932 89.5519 6.39859 89.5519 6.39859C89.3167 6.47386 89.0908 6.37036 88.9779 6.17275C88.1969 4.73307 86.9454 3.80151 85.1294 3.80151C82.6076 3.80151 80.7256 5.88105 80.7256 8.38403C80.7256 10.887 82.6452 12.9383 85.1294 12.9383C87.0207 12.9383 88.3098 11.9785 89.0344 10.633C89.2226 10.2754 89.4296 10.1907 89.8154 10.3412L91.7538 11.0846C91.8761 11.1317 91.9796 11.2258 92.0267 11.3575C92.0737 11.4798 92.0737 11.621 92.0173 11.7339C90.7375 14.4251 88.1499 16.0906 85.1294 16.0906C80.9515 16.0906 77.564 12.6372 77.564 8.38403C77.564 4.13085 80.9609 0.67749 85.1294 0.67749C88.0087 0.67749 90.5776 2.28655 91.8855 4.89303C92.0737 5.28824 91.9232 5.59876 91.5656 5.72109Z" fill="white"/>
<path d="M54.6235 4.83655C53.7013 4.83655 52.6098 5.45759 51.9417 6.06922L51.6406 6.35151V5.61755C51.6406 5.18471 51.3772 5.0812 51.029 5.0812H49.0435C48.7236 5.0812 48.5166 5.30703 48.5166 5.61755V15.3472C48.5166 15.6859 48.7236 15.8929 49.0341 15.8929H51.1137C51.4242 15.8929 51.6312 15.6389 51.6312 15.366V11.141C51.6312 9.20265 52.6098 8.12994 54.5388 8.12994C54.9246 8.12994 55.1128 7.92293 55.1128 7.63123V5.35408C55.1222 5.00592 54.9152 4.83655 54.6235 4.83655Z" fill="white"/>
<path d="M19.2616 4.88361C16.3822 4.88361 14.0298 7.396 14.0298 10.4918C14.0298 13.5782 16.3728 16.1 19.2616 16.1C20.3437 16.1 21.3505 15.7424 22.1692 15.0555L22.4609 14.8108V15.4319C22.4609 15.6859 22.6679 15.893 22.9219 15.893H25.0297C25.3308 15.893 25.5755 15.6483 25.5755 15.3472V5.6552C25.5755 5.31645 25.4061 5.08121 25.0203 5.08121H23.0631C22.6397 5.08121 22.4609 5.2694 22.4609 5.64579V6.18215C21.7834 5.52347 20.6919 4.88361 19.2616 4.88361ZM19.9203 13.2865C18.3488 13.2865 17.2573 12.1385 17.2573 10.4918C17.2573 8.87332 18.3771 7.69711 19.9203 7.69711C21.4917 7.69711 22.6867 8.90155 22.6867 10.4918C22.6773 12.0538 21.4634 13.2865 19.9203 13.2865Z" fill="white"/>
<path d="M60.7489 4.88361C57.8695 4.88361 55.5171 7.396 55.5171 10.4918C55.5171 13.5782 57.8601 16.1 60.7489 16.1C61.831 16.1 62.8378 15.7424 63.6565 15.0555L63.9482 14.8108V15.4036C63.9482 15.6765 64.2022 15.9024 64.4469 15.9024H66.5923C66.8558 15.9024 67.0628 15.6859 67.0628 15.4319V5.5517C67.0628 5.29763 66.8558 5.09062 66.6017 5.09062H64.4375C64.1458 5.09062 63.9482 5.27881 63.9482 5.58933V6.20096C63.2707 5.52347 62.1792 4.88361 60.7489 4.88361ZM61.4076 13.2865C59.8361 13.2865 58.7446 12.1385 58.7446 10.4918C58.7446 8.87332 59.8644 7.69711 61.4076 7.69711C62.979 7.69711 64.174 8.90155 64.174 10.4918C64.1646 12.0538 62.9507 13.2865 61.4076 13.2865Z" fill="white"/>
<path d="M43.7082 14.7356V15.4695C43.7082 15.7048 43.9058 15.9024 44.141 15.9024H46.1829C46.5311 15.9024 46.7475 15.733 46.7475 15.3472V5.60818C46.7475 5.27884 46.5217 5.08124 46.1735 5.08124H44.3292C43.9058 5.08124 43.7082 5.27884 43.7082 5.73992V10.6518C43.7082 12.6937 42.6449 13.4465 41.384 13.4465C39.8878 13.4465 39.0974 12.4867 39.0974 10.6612L39.0692 5.64582C39.0692 5.31648 38.8998 5.09065 38.4952 5.09065H36.4439C36.0299 5.09065 35.8511 5.28825 35.8511 5.67405V10.4918C35.8511 13.9169 37.7048 16.0529 40.8476 16.0529C42.2591 16.0529 43.2471 15.4507 43.6799 14.7356C43.6893 14.7074 43.7082 14.7168 43.7082 14.7356Z" fill="white"/>
<path d="M3.1052 6.8879C3.1052 6.86908 3.12402 6.85967 3.14284 6.87849L9.09918 15.6483C9.2121 15.8083 9.37206 15.9024 9.58848 15.9024H12.3643C12.7313 15.9024 12.9195 15.6766 12.9195 15.3566V1.52437C12.9195 1.22326 12.7219 1.00684 12.3926 1.00684H10.3413C10.0307 1.00684 9.81432 1.23267 9.81432 1.59965V11.2916C9.81432 11.3105 9.78609 11.3199 9.77668 11.301L3.35926 1.2609C3.25576 1.10093 3.08638 1.00684 2.89819 1.00684H0.602222C0.169375 1.00684 0 1.20444 0 1.59965V15.319C0 15.6389 0.207014 15.893 0.545763 15.893H2.55944C2.9076 15.893 3.12402 15.6671 3.12402 15.319V6.8879H3.1052Z" fill="white"/>
<path d="M109.237 16.0718C106.236 16.0718 103.761 13.6064 103.714 10.5765C103.686 9.07096 104.288 7.59364 105.342 6.52094C106.367 5.47646 107.713 4.90247 109.134 4.90247C111.43 4.90247 113.312 6.04104 114.309 8.01707C114.356 8.10176 114.356 8.20527 114.319 8.29936C114.281 8.39346 114.206 8.45933 114.112 8.49697L111.929 9.23093C111.881 9.24975 111.834 9.24975 111.797 9.24975C111.656 9.24975 111.514 9.17447 111.439 9.05214C110.912 8.27114 110.197 7.87593 109.303 7.87593C107.864 7.87593 106.734 9.01451 106.734 10.473C106.734 11.9221 107.882 13.0889 109.303 13.0889C110.197 13.0889 110.94 12.6843 111.439 11.9127C111.524 11.781 111.637 11.7151 111.787 11.7151C111.881 11.7151 111.985 11.7339 112.107 11.781L113.905 12.3926C114.074 12.4396 114.196 12.5525 114.262 12.6937C114.319 12.816 114.309 12.9572 114.243 13.0795C113.218 14.9614 111.345 16.0718 109.237 16.0718Z" fill="white"/>
<path d="M73.1133 15.893C73.452 15.893 73.6402 15.6671 73.6402 15.3566V13.2771C73.6402 12.9289 73.4708 12.7407 73.0286 12.7313H72.4169C72.05 12.7313 71.8429 12.5243 71.8429 12.1385V1.60905C71.8429 1.29853 71.6642 1.06329 71.2972 1.06329H69.2741C68.8601 1.06329 68.6719 1.24208 68.6719 1.60905V12.5243C68.6719 14.9144 69.547 15.893 71.6736 15.893H73.1133Z" fill="white"/>
<path d="M130.974 13.343C131.247 13.5594 131.237 13.8887 130.955 14.2087C129.882 15.4413 128.697 16.0906 126.325 16.0906C123.258 16.0906 120.755 13.5782 120.755 10.4824C120.755 7.39605 123.248 4.83661 126.325 4.87425C129.713 4.9213 131.877 7.43369 131.877 10.6142C131.877 10.9906 131.68 11.1787 131.303 11.1787H123.888C123.973 12.4114 124.942 13.343 126.325 13.343C127.624 13.343 128.292 12.7408 128.734 12.2703C128.979 11.9974 129.261 11.9974 129.515 12.195L130.974 13.343ZM126.429 7.33018C125.159 7.33018 124.255 8.06413 124.067 9.0992H128.687C128.48 8.11118 127.643 7.33018 126.429 7.33018Z" fill="white"/>
<path d="M120.04 15.893C120.378 15.893 120.566 15.6671 120.566 15.3566V13.2771C120.566 12.9289 120.397 12.7407 119.955 12.7313H119.343C118.976 12.7313 118.769 12.5243 118.769 12.1385V1.60905C118.769 1.29853 118.59 1.06329 118.223 1.06329H116.2C115.786 1.06329 115.598 1.24208 115.598 1.60905V12.5243C115.598 14.9144 116.473 15.893 118.6 15.893H120.04Z" fill="white"/>
<path d="M35.1172 14.9238C34.7596 15.2437 34.0068 16.0059 31.8897 16.0059C30.3276 16.0059 28.3516 14.905 28.3704 11.9033V7.88533C28.3704 7.83828 28.3328 7.80064 28.2857 7.80064H27.4389C27.0907 7.80064 26.8555 7.60303 26.8555 7.23605L26.8649 5.60818C26.8649 5.32589 27.0248 5.08123 27.4483 5.08123H28.2952C28.3422 5.08123 28.3798 5.0436 28.3798 4.99655V1.57142C28.3798 1.20444 28.5774 1.00684 28.9444 1.00684H31.0146C31.3439 1.00684 31.5039 1.1668 31.5039 1.49614V4.99655C31.5039 5.0436 31.5415 5.08123 31.5885 5.08123H34.1198C34.4867 5.08123 34.6937 5.28825 34.6937 5.66464L34.6843 7.20783C34.6843 7.58421 34.4773 7.79123 34.1103 7.79123H31.5885C31.5415 7.79123 31.5039 7.82886 31.5039 7.87591V11.6868C31.5039 12.5619 32.0026 13.0983 32.8118 13.0983C33.1223 13.0983 33.3576 13.0324 33.5552 12.8819C33.7904 12.7031 34.1009 12.7219 34.2985 12.9571C34.5808 13.3053 35.2489 14.1898 35.2489 14.1898C35.3995 14.4345 35.343 14.7168 35.1172 14.9238Z" fill="white"/>
<path d="M132.62 13.343C132.338 13.5594 132.385 13.8793 132.507 14.0581C132.903 14.6509 134.239 16.1 137.062 16.1C140.252 16.1 141.851 14.4251 141.851 12.7313C141.851 10.68 140.609 9.70142 137.363 8.91101C136.055 8.59108 135.735 8.33702 135.735 8.0359C135.735 7.71598 136.045 7.41487 136.817 7.41487C137.843 7.41487 138.586 7.68775 139.762 8.36524C140.026 8.5158 140.299 8.53462 140.524 8.23351L141.456 7.01966C141.682 6.69973 141.541 6.41744 141.277 6.22924C140.082 5.39178 138.765 4.89307 137.071 4.89307C134.389 4.89307 132.677 6.43626 132.677 8.33702C132.677 10.106 133.834 11.1882 136.431 11.7904C137.956 12.1479 138.671 12.2985 138.671 12.7596C138.671 13.1454 138.257 13.5124 137.137 13.5124C136.017 13.5124 135.067 12.8537 134.634 12.3926C134.427 12.1668 134.126 12.1479 133.862 12.355C133.853 12.355 132.714 13.2677 132.62 13.343Z" fill="white"/>
<path d="M146.095 0C143.94 0 142.19 1.7502 142.19 3.90502C142.19 6.05985 143.94 7.81005 146.095 7.81005C148.25 7.81005 150 6.05985 150 3.90502C150 1.7502 148.25 0 146.095 0ZM146.095 6.32332C144.759 6.32332 143.667 5.2412 143.667 3.89561C143.667 2.55944 144.749 1.46791 146.095 1.46791C147.431 1.46791 148.523 2.55003 148.523 3.89561C148.523 5.2412 147.431 6.32332 146.095 6.32332Z" fill="white"/>
</svg>
